# xmcd
#
# Track frame offsets:
#	150
#	17830
#	31610
#	48940
#	69335
#	86060
#	104217
#	116472
#	128492
#	145172
#	158812
#	175467
#	191287
#	207942
#	225702
#	241702
#	258025
#	271117
#	284302
#
# Disc length: 4095 seconds
#
# Revision: 0
# Processed by: cddbd v1.5.2PL0 Copyright (c) Steve Scherf et al.
# Submitted via: EasyCDDAExtractor 16.0.6.1
#
DISCID=f90ffd13
DTITLE=Νταλάρας Γιώργος - Πενήντα χρόνια ρεμπέτικο τραγούδι-Γ. Νταλάρας
DYEAR=1988
DGENRE=Ρεμπέτικη
TTITLE0=Γλυκοχαράζουν τα βουνά [Β. Τσιτσάνης]
TTITLE1=Τι σού λέει η μάνα σου [Κ. Σκαρβέλης]
TTITLE2=Του Βοτανικού ο μάγκας [Γ. Μπιθικώτσης-Λ. Τσόλης]
TTITLE3=Θα κάνω ντου βρε πονηρή [Β. Τσιτσάνης]
TTITLE4=Όλοι οι ρεμπέτες [Μ. Βαμβακάρης]
TTITLE5=Το γράμμα [Γ. Ζαμπέτας-Γ. Μητσάκης]
TTITLE6=Για την απονιά σου [Π. Τσούντας]
TTITLE7=Το χρήμα δεν το λογαριάζω [Μ. Χιώτης]
TTITLE8=Ένας αλήτης πέθανε [Κ. Καπλάνης-Κ. Μάνεσης]
TTITLE9=Άλλα μού λέν' τα μάτια σου [Θ. Δερβενιώτης-Κ. Μάνεσης]
TTITLE10=Βαρβάκειο [Π. Τσαουσάκης-Σαρ.Τσιλιβερδής]
TTITLE11=Ήρθ' ο χειμώνας (Η παλτουδιά) [Π. Τσούντας-Κ. Κοφινιώτης]
TTITLE12=Ο Μανώλης [Κ. Νούρος-Ι. Δραγάτσης]
TTITLE13=Γιοβάν Τσαούς [ΙΕϊντζιρίδης ή Γιοβάν Τσαούς]
TTITLE14=Όμορφη Πειραιώτισσα [Κ. Καπλάνης]
TTITLE15=Παραπονιάρικό μου [Απ. Χατζηχρήστος]
TTITLE16=Πέφτεις σε λάθη [Β. Τσιτσάνης]
TTITLE17=Ο Κάβουρας [Μ. Βαμβακάρης]
TTITLE18=Ο Πίκινος [Π. Ρούκουνας]
EXTD=
EXTT0=
EXTT1=
EXTT2=
EXTT3=
EXTT4=
EXTT5=
EXTT6=
EXTT7=
EXTT8=
EXTT9=
EXTT10=
EXTT11=
EXTT12=
EXTT13=
EXTT14=
EXTT15=
EXTT16=
EXTT17=
EXTT18=
PLAYORDER=
